<?xml version="1.0" encoding="UTF-8" standalone="no"?>
<!-- Created with Inkscape (http://www.inkscape.org/) -->

<svg
   width="256"
   height="256"
   viewBox="0 0 256 256"
   version="1.1"
   id="SVGRoot"
   sodipodi:docname="GrayPlane.svg"
   inkscape:version="1.1 (c4e8f9ed74, 2021-05-24)"
   xmlns:inkscape="http://www.inkscape.org/namespaces/inkscape"
   xmlns:sodipodi="http://sodipodi.sourceforge.net/DTD/sodipodi-0.dtd"
   xmlns="http://www.w3.org/2000/svg"
   xmlns:svg="http://www.w3.org/2000/svg">
  <sodipodi:namedview
     id="namedview1101"
     pagecolor="#ffffff"
     bordercolor="#666666"
     borderopacity="1.0"
     inkscape:pageshadow="2"
     inkscape:pageopacity="0.0"
     inkscape:pagecheckerboard="0"
     inkscape:document-units="px"
     showgrid="true"
     inkscape:zoom="2"
     inkscape:cx="97.75"
     inkscape:cy="190.75"
     inkscape:window-width="1920"
     inkscape:window-height="1013"
     inkscape:window-x="0"
     inkscape:window-y="37"
     inkscape:window-maximized="1"
     inkscape:current-layer="g124649"
     width="256px">
    <inkscape:grid
       type="xygrid"
       id="grid1164" />
  </sodipodi:namedview>
  <defs
     id="defs1096" />
  <g
     inkscape:label="Layer 1"
     inkscape:groupmode="layer"
     id="layer1">
    <g
       transform="matrix(0.04815904,0,0,-0.04815904,-26.842371,202.91895)"
       fill="#343434"
       stroke="none"
       id="g124649"
       style="fill:#bfbfbf;fill-opacity:1">
      <path
         class="node"
         id="node1"
         d="m 4858.0617,1534.8925 c -148.253,-17.4415 -370.6326,-91.568 -588.6518,-191.8568 -89.3879,-41.4238 -202.7578,-91.5681 -250.7221,-113.3701 -47.9643,-21.8019 -143.8927,-65.4057 -211.4787,-95.9284 -67.5859,-30.5227 -128.6313,-56.685 -132.9916,-56.685 -6.5406,0 -98.1087,-39.2434 -204.9381,-89.38788 C 3364.6302,939.7001 3233.8187,878.65472 3179.3138,856.8528 3068.124,806.70838 3002.7182,778.36588 2828.303,697.69878 1712.0445,189.71402 624.93386,-267.21348 557.34791,-275.93425 c 0,-497.97745 0.0466,-826.26895 0.0466,-826.26895 452.65999,11.3968 997.74009,100.5341 1383.57009,262.86655 163.5145,71.94634 303.0467,128.63133 307.4071,128.63133 6.5406,0 95.9285,39.24346 200.5777,89.38788 104.6492,47.96422 194.0371,82.8473 200.5776,76.30672 6.5406,-6.54057 -8.7207,-119.91057 -34.883,-250.7221 -15.7568,-80.09763 -36.2588,-191.82868 -55.7901,-297.08928 l 864.1394,3.6063 c 7.5047,16.7327 13.5613,30.422 17.9435,40.5808 21.8019,47.9642 76.3067,170.05489 124.2709,272.52392 47.9642,102.46902 154.7937,331.3892 237.641,507.98476 L 3953.282,54.542106 4541.9339,346.68785 c 322.6685,161.33421 638.7962,320.48824 697.6615,353.19111 307.4071,174.41538 427.3176,252.9023 531.9668,351.01094 128.6314,122.0908 128.6314,135.1719 2.1803,263.8033 -183.1362,180.9559 -542.8679,268.1635 -915.6808,220.1993 z"
         style="fill:#dedede;fill-opacity:1;stroke-width:2.18019"
         sodipodi:nodetypes="ccsssccccscscsccccsccccccc" />
      <path
         class="node"
         id="node2"
         d="M 955.5179,1279.8101 C 861.76964,1262.3685 654.65139,1162.0797 641.57024,1127.1966 624.1287,1083.5927 700.43542,1020.3672 986.04059,848.13203 1125.5728,765.28473 1262.925,680.25724 1291.2675,662.8157 c 28.3424,-17.44153 119.9105,-71.94633 202.7578,-122.09076 l 152.6135,-89.38787 455.6602,202.75786 c 418.5968,185.31633 527.6065,248.5419 436.0383,248.5419 -19.6216,0 -91.568,17.44154 -161.3341,41.42366 -67.586,21.80191 -257.2627,80.66711 -418.597,130.81151 -161.3341,50.1444 -368.4525,115.5502 -457.8403,141.7125 -163.5144,52.3246 -442.579,85.0274 -545.048,63.2256 z"
         style="fill:#dedede;fill-opacity:1;stroke-width:2.18019" />
    </g>
  </g>
</svg>
